<svg height="256" viewBox="0 0 512 512" width="256" xmlns="http://www.w3.org/2000/svg"><g fill="#6b7280"><path d="m403.925 108.102c-27.595-27.595-62.899-47.558-102.459-56.29l2.716-51.812-102.236 53.867-27.306 14.454-5.066 2.654 8.076 4.331 38.16 20.542 81.029 43.602 2.277-42.859c28.265 7.546 53.438 22.53 73.623 42.638 29.94 29.939 48.358 71.119 48.358 116.776 0 23.407-4.843 45.58-13.575 65.687l40.37 17.532c11.076-25.463 17.242-53.637 17.242-83.219.078-57.699-23.407-110.101-61.209-147.903z"/><path d="m296.256 416.151-81.101-43.612-2.272 42.869c-28.26-7.555-53.51-22.53-73.618-42.636-29.945-29.95-48.364-71.12-48.364-116.767 0-23.427 4.844-45.522 13.576-65.697l-40.37-17.531c-11.076 25.53-17.242 53.723-17.242 83.228 0 57.679 23.407 110.157 61.21 147.893 27.595 27.594 62.899 47.548 102.453 56.202l-2.716 51.9 102.169-53.878 27.455-14.454 4.988-2.643-7.999-4.332z"/></g></svg>